<?xml version="1.0" encoding="UTF-8"?>
<!-- Generator: Blender, SVG Export for Grease Pencil - v2.0 -->
<!DOCTYPE svg PUBLIC "-//W3C//DTD SVG 1.1//EN" "http://www.w3.org/Graphics/SVG/1.1/DTD/svg11.dtd">
<svg version="1.1" x="0px" y="0px" xmlns="http://www.w3.org/2000/svg" width="1920.000000px" height="1080.000000px" viewBox="0 0 1920.000000 1080.000000">
	<g id="blender_frame.1">
		<g id="blender_object.Plane.1.uuid_0x0">
			<g id="layer.Lines.uuid_0x1">
				<path d="M636.388062,530.919983L634.791138,532.865967L633.604370,535.085999L632.873718,537.494934L632.626953,540.000122L632.873718,542.505310L633.604370,544.914246L634.791138,547.134338L636.388062,549.080261L638.334045,550.677246L640.554077,551.863892L642.963074,552.594604L645.468201,552.841370L647.973389,552.594604L650.382324,551.863892L652.602417,550.677185L654.548340,549.080200L960.000000,243.628540L1256.371460,540.000122L960.000000,836.371643L654.548340,530.919983L652.602417,529.323059L650.382324,528.136292L647.973389,527.405640L645.468201,527.158875L642.963074,527.405640L640.554077,528.136414L638.334045,529.323059L636.388062,530.919983L634.791138,532.865967L633.604370,535.085938L632.873718,537.494934L632.626953,540.000122L632.873718,542.505310L633.604370,544.914246L634.791138,547.134338L636.388062,549.080200L950.919861,863.612061L953.168030,865.404907L955.758850,866.652466L958.562195,867.292419L961.437744,867.292419L964.241089,866.652466L966.831909,865.404907L969.080078,863.612061L1283.611816,549.080200L1285.404663,546.832092L1286.652344,544.241333L1287.292236,541.437866L1287.292236,538.562317L1286.652344,535.758911L1285.404663,533.168213L1283.611816,530.919983L969.080078,216.388184L966.831909,214.595276L964.241089,213.347778L961.437744,212.707764L958.562195,212.707764L955.758850,213.347778L953.168030,214.595276L950.919861,216.388184z" fill="#FEFEFE" stroke="none" fill-opacity="1" />
			</g>
			<g id="layer.Fills.uuid_0x2" />
		</g>
	</g>
</svg>
